<svg xmlns="http://www.w3.org/2000/svg" xmlns:xlink="http://www.w3.org/1999/xlink" width="70" height="70.2" viewBox="0 0 70 70.2">
  <defs>
    <linearGradient id="linear-gradient" x1="0.982" y1="0.018" x2="0" y2="1" gradientUnits="objectBoundingBox">
      <stop offset="0" stop-color="#39b8bc"/>
      <stop offset="0.508" stop-color="#3b9193"/>
      <stop offset="1" stop-color="#2a6162"/>
    </linearGradient>
    <clipPath id="clip-odoo_icon_1">
      <rect width="70" height="70.2"/>
    </clipPath>
  </defs>
  <g id="odoo_icon_1" data-name="odoo_icon – 1" clip-path="url(#clip-odoo_icon_1)">
    <rect width="70" height="70.2" fill="#fff"/>
    <g id="fleet" transform="translate(0 0.064)">
      <g id="Groupe_1" data-name="Groupe 1">
        <rect id="Rectangle_2" data-name="Rectangle 2" width="70" height="70" fill="url(#linear-gradient)"/>
        <path id="Tracé_7" data-name="Tracé 7" d="M4-1.8H65q4,0,5,2v-3H0q0-1,0,3Q1-1.8,4-1.8Z" transform="translate(0 2.8)" fill="rgba(255,255,255,0.38)" fill-rule="evenodd"/>
        <path id="Tracé_8" data-name="Tracé 8" d="M4,48c-2,0-4-.149-4-4.174V7L9.944-8.152l7.267,7.012,1.657-.817h2.195S22.956-4.392,28.69-3.9s16.285-.427,16.285-.427l5.994,3.19,1.646,4.531L51.64,9.95l-3.546,8.1.689,1.472L46.351,22.4l3.928,3.437-3.6,3.11v2.213l-.325.508-17.3,15.406-1.643.235Z" transform="translate(0 22)" fill="#393939" fill-rule="evenodd" opacity="0.324"/>
        <path id="Tracé_9" data-name="Tracé 9" d="M4,4H65q4,0,5-3V5H0V1A3.921,3.921,0,0,0,4,4Z" transform="translate(0 65)" fill="rgba(0,0,0,0.38)" fill-rule="evenodd"/>
        <path id="Tracé_19" data-name="Tracé 19" d="M58.907,36.7l.185,2.43-8.716,7.237-1.638-1.426Z" fill="#3a7677"/>
      </g>
      <g id="_993324" data-name="993324" transform="translate(9.529 294.647)">
        <path id="Tracé_15" data-name="Tracé 15" d="M.289-511.662l-.289.24v4.793c0,4.238.02,4.81.16,4.975a18.123,18.123,0,0,0,1.505,1.134c1.515,1.068,1.745,1.142,2.363.77l.279-.166,1.515,1.25c1.864,1.531,1.834,1.523,2.861.7l.7-.555,1.984,1.647a26.406,26.406,0,0,1,1.994,1.747,5.777,5.777,0,0,1-.419.828,2.129,2.129,0,0,0-.419,1.4,1.736,1.736,0,0,0,.319,1.217,3.391,3.391,0,0,0,1.894,1.473,3.262,3.262,0,0,0,1.366.149,7.219,7.219,0,0,0,2.273-.521,10.559,10.559,0,0,0,1.465-.546,5.486,5.486,0,0,0-.6-1.192,9.76,9.76,0,0,0-1.475.414c-1.475.48-1.954.546-2.542.339a1.478,1.478,0,0,1-1.007-1.565,3.717,3.717,0,0,1,.389-.8c.518-.869.588-1.109.439-1.556-.11-.348-.379-.6-2.293-2.21l-2.173-1.821.638-.546c.568-.48.648-.6.648-.869,0-.29-.1-.4-1.485-1.556L8.9-503.748l.229-.281c.269-.315.289-.464.11-.737s-7.646-6.838-7.966-7A.792.792,0,0,0,.289-511.662Zm4.018,4.545c1.386,1.217,2.632,2.318,2.771,2.442l.239.232-1.934,1.606c-1.067.886-1.974,1.614-2.024,1.614a6.606,6.606,0,0,1-.867-.563l-.8-.555v-3.5c0-1.921.02-3.493.04-3.493S2.911-508.334,4.307-507.117Zm4.5,5.3,1.067.886-1.1.911-1.1.911-1.1-.911-1.1-.911,1.067-.886a13.943,13.943,0,0,1,1.127-.894A13.944,13.944,0,0,1,8.8-501.819Z" transform="translate(0 231.098)" fill="#fefefe"/>
        <path id="Tracé_16" data-name="Tracé 16" d="M102.31-477.586a12.321,12.321,0,0,0-5.922,2.326l-.688.522.638.472.628.464.768-.546a9.805,9.805,0,0,1,4.755-1.8,10.181,10.181,0,0,1,4.456.439,16.588,16.588,0,0,0,3.768.77,14.719,14.719,0,0,0,5.7-.77,10.438,10.438,0,0,1,4.247-.472c3.539.381,6.4,2.293,7.527,5.033a7.355,7.355,0,0,1,.429,3.659,17.459,17.459,0,0,1-3.37,9.031l-.788,1.118-.309,1.9c-.169,1.043-.329,2.02-.359,2.161l-.05.257.818.091a5.042,5.042,0,0,0,.847.066c.02-.017.189-.935.369-2.045l.339-2.02.429-.579a18.81,18.81,0,0,0,3.778-9.975,10.864,10.864,0,0,0,0-2.144c-.658-5.281-6.56-8.882-12.831-7.823-.4.066-1.286.29-1.964.488a12.333,12.333,0,0,1-3.848.629,12.384,12.384,0,0,1-3.878-.637c-.688-.207-1.565-.43-1.954-.5A16.342,16.342,0,0,0,102.31-477.586Z" transform="translate(-86.159 199.679)" fill="#fefefe"/>
        <path id="Tracé_17" data-name="Tracé 17" d="M76-316.891a5.966,5.966,0,0,0-.788.182A11.021,11.021,0,0,0,76.125-314a19.837,19.837,0,0,0,1.994,3.477l.668.952,1.087,6.622c.618,3.725,1.176,6.863,1.286,7.177.827,2.285,4.406,2.947,6.38,1.175.808-.728.788-.687,2.253-7.947.927-4.627,1.4-6.763,1.535-6.978a2.3,2.3,0,0,1,1.894-1,2.2,2.2,0,0,1,2.034,1.275c.08.232.508,2.268.957,4.52s.847,4.122.887,4.156a6.15,6.15,0,0,0,1.565-.207c.06-.041-1.3-6.995-1.625-8.328a3.689,3.689,0,0,0-3.579-2.8,4.026,4.026,0,0,0-3.868,2.111c-.09.215-.738,3.311-1.456,6.887s-1.366,6.656-1.456,6.846A2.287,2.287,0,0,1,84.43-295a2.183,2.183,0,0,1-1.675-1.167c-.05-.132-.588-3.295-1.206-7.028l-1.107-6.788-.778-1.118a18.716,18.716,0,0,1-2.592-5.05,6.559,6.559,0,0,0-.279-.786C76.743-317.007,76.5-316.99,76-316.891Z" transform="translate(-67.701 52.32)" fill="#fefefe"/>
        <path id="Tracé_18" data-name="Tracé 18" d="M259.259-258.884c-5.952,4.942-6.151,5.124-6.151,5.422,0,.248.08.381.419.687l.419.373-1.655,1.374-1.665,1.374-.8-.3a8.138,8.138,0,0,0-3.21-.613,9.317,9.317,0,0,0-2.094.1,6.381,6.381,0,0,0-4.656,2.674,2.012,2.012,0,0,0-.369,1.432,1.97,1.97,0,0,0,.369,1.416c1.146,1.921,4.416,3.1,7.567,2.723,2.393-.29,4.357-1.316,5.184-2.707a2,2,0,0,0,.339-1.44,2.525,2.525,0,0,0-.718-2.012l-.269-.315,1.615-1.341,1.615-1.333.369.3a1.358,1.358,0,0,0,1.077.414c.12-.017,2.363-1.813,5.124-4.106l4.895-4.065v-4.768l-.249-.2A.849.849,0,0,0,265.8-264C265.43-264,265.251-263.859,259.259-258.884Zm1.456,3.013-4.267,3.543-.668-.555-.678-.563,4.9-4.073,4.915-4.081.03,1.093.03,1.093Zm-12.771,6.846c2.552.546,3.918,2.02,3.17,3.435a4.789,4.789,0,0,1-3.09,1.838,10.729,10.729,0,0,1-3.489.008c-2.034-.455-3.39-1.531-3.39-2.7,0-.877,1.176-1.937,2.622-2.384A8.942,8.942,0,0,1,247.944-249.025Z" transform="translate(-215.623 3.726)" fill="#fefefe"/>
      </g>
      <path id="Tracé_20" data-name="Tracé 20" d="M43.116,20.7H47.7v3.7h3.747v3.792H47.7v3.652h-4.58V28.191h-3.9V24.4h3.9Z" transform="translate(-3.162 0.029)" fill="none" stroke="#fff" stroke-width="2"/>
    </g>
  </g>
</svg>
